<svg id="icon" height="512" viewBox="0 0 128 128" width="512" xmlns="http://www.w3.org/2000/svg"><path d="m19.732 61.844h88.537v51.715h-88.537z" fill="#ef5361"/><path d="m108.27 61.84v51.72h-88.54v-7.006h82.22v-44.714z" fill="#da2a47"/><path d="m108.268 114.56h-88.536a1 1 0 0 1 -1-1v-51.716a1 1 0 0 1 1-1h88.536a1 1 0 0 1 1 1v51.716a1 1 0 0 1 -1 1zm-87.536-2h86.536v-49.716h-86.536z" fill="#2f3a5a"/><circle cx="62.878" cy="112.305" fill="#84879c" r="14.695" transform="matrix(.987 -.16 .16 .987 -17.177 11.522)"/><path d="m62.878 128a15.7 15.7 0 1 1 15.695-15.695 15.713 15.713 0 0 1 -15.695 15.695zm0-29.391a13.7 13.7 0 1 0 13.695 13.7 13.711 13.711 0 0 0 -13.695-13.7z" fill="#2f3a5a"/><circle cx="62.878" cy="112.305" fill="#e1e6e9" r="6.444" transform="matrix(.987 -.16 .16 .987 -17.177 11.522)"/><g fill="#2f3a5a"><path d="m62.878 119.749a7.445 7.445 0 1 1 7.444-7.444 7.453 7.453 0 0 1 -7.444 7.444zm0-12.889a5.445 5.445 0 1 0 5.444 5.445 5.451 5.451 0 0 0 -5.444-5.445z"/><path d="m110.56 71.126h-93.12a1 1 0 1 1 0-2h93.12a1 1 0 0 1 0 2z"/><path d="m64 62.844a1 1 0 0 1 -1-1v-60.844a1 1 0 0 1 2 0v60.844a1 1 0 0 1 -1 1z"/></g><path d="m108.038 40.844a45.149 45.149 0 0 0 -88.076 0z" fill="#e8c79c"/><path d="m108.038 41.844h-88.076a1 1 0 0 1 -.975-1.22 46.149 46.149 0 0 1 90.026 0 1 1 0 0 1 -.975 1.22zm-86.808-2h85.54a44.152 44.152 0 0 0 -85.54 0z" fill="#2f3a5a"/><path d="m83.03 40.844c-1.962-20.144-9.73-35.193-19.03-35.193s-17.068 15.049-19.03 35.193z" fill="#e1e6e9"/><path d="m83.03 41.844h-38.06a1 1 0 0 1 -.995-1.1c2.07-21.25 10.305-36.093 20.025-36.093s17.955 14.843 20.025 36.1a1 1 0 0 1 -1 1.1zm-36.952-2h35.844c-2.104-19.301-9.565-33.193-17.922-33.193s-15.818 13.892-17.922 33.193z" fill="#2f3a5a"/><path d="m19.962 40.844v3.192a4.395 4.395 0 0 0 4.395 4.395h16.218a4.395 4.395 0 0 0 4.395-4.395v-3.192z" fill="#d8b18c"/><path d="m40.575 49.431h-16.218a5.4 5.4 0 0 1 -5.395-5.395v-3.192a1 1 0 0 1 1-1h25.008a1 1 0 0 1 1 1v3.192a5.4 5.4 0 0 1 -5.395 5.395zm-19.613-7.587v2.192a3.4 3.4 0 0 0 3.395 3.395h16.218a3.4 3.4 0 0 0 3.395-3.395v-2.192z" fill="#2f3a5a"/><path d="m83.03 40.844v3.192a4.395 4.395 0 0 0 4.395 4.395h16.218a4.395 4.395 0 0 0 4.395-4.395v-3.192z" fill="#d8b18c"/><path d="m103.643 49.431h-16.218a5.4 5.4 0 0 1 -5.395-5.395v-3.192a1 1 0 0 1 1-1h25.008a1 1 0 0 1 1 1v3.192a5.4 5.4 0 0 1 -5.395 5.395zm-19.613-7.587v2.192a3.4 3.4 0 0 0 3.395 3.395h16.218a3.4 3.4 0 0 0 3.395-3.395v-2.192z" fill="#2f3a5a"/><path d="m44.97 40.844v3.192a4.395 4.395 0 0 0 4.4 4.395h29.27a4.395 4.395 0 0 0 4.395-4.395v-3.192z" fill="#e1e6e9"/><path d="m78.635 49.431h-29.27a5.4 5.4 0 0 1 -5.4-5.395v-3.192a1 1 0 0 1 1-1h38.065a1 1 0 0 1 1 1v3.192a5.4 5.4 0 0 1 -5.395 5.395zm-32.665-7.587v2.192a3.4 3.4 0 0 0 3.4 3.395h29.27a3.4 3.4 0 0 0 3.395-3.395v-2.192z" fill="#2f3a5a"/></svg>