<svg id="Layer_1" enable-background="new 0 0 512 512" height="512" viewBox="0 0 512 512" width="512" xmlns="http://www.w3.org/2000/svg"><g><path d="m460.896 401.341c25.345-38.578 40.103-84.732 40.103-134.34 0-135.309-109.689-244.999-244.999-244.999s-244.999 109.69-244.999 244.999c0 49.608 14.759 95.762 40.104 134.34z" fill="#1c2e7a"/><path d="m129.742 408.57v45.714h252.516v-45.714c0-17.345 6.41-34.078 17.998-46.984l31.551-35.138c-6.696-5.963-14.842-10.782-24.758-13.831l-70.217-26.693c-11.385 23.364-43.261 40.194-80.833 40.194s-69.449-16.83-80.834-40.194l-70.217 26.693c-9.916 3.049-18.061 7.868-24.756 13.831l31.551 35.138c11.589 12.906 17.999 29.639 17.999 46.984z" fill="#ff4155"/><path d="m120.457 373.679c23.901-17.604 69.634-36.308 83.531-41.795 2.553-1.008 4.579-3.016 5.626-5.554 1.264-3.064 2.583-5.724 3.931-8.05-17.878-7.125-31.679-18.607-38.379-32.356l-70.217 26.693c-9.916 3.049-18.061 7.868-24.756 13.831l31.551 35.138c3.352 3.734 6.257 7.796 8.713 12.093z" fill="#e80054"/><path d="m256 326.117c37.573 0 69.449-16.83 80.834-40.194-6.82-2.385-13.795-4.434-21.013-6.099-9.252-9.252-11.597-26.792-12.019-39.064-4.828 5.624-9.895 10.328-14.737 14.088-9.434 7.325-21.075 11.304-33.064 11.304-11.99 0-23.631-3.979-33.064-11.304-4.842-3.76-9.909-8.464-14.738-14.088-.423 12.271-2.768 29.812-12.019 39.064-7.217 1.665-14.193 3.714-21.013 6.099 11.384 23.364 43.26 40.194 80.833 40.194z" fill="#fcad6d"/><path d="m222.936 254.848c-4.842-3.76-9.909-8.464-14.738-14.088-.423 12.271-2.768 29.812-12.019 39.064-7.217 1.665-14.193 3.714-21.013 6.099 6.7 13.75 20.501 25.231 38.379 32.356 7.944-13.701 16.95-15.442 22.243-14.993 3.406.289 6.763-1.068 8.824-3.795 9.083-12.014 10.961-26.249 11.297-33.341-11.957-.02-23.563-3.995-32.973-11.302z" fill="#fd995b"/><path d="m263.045 386.152h-14.09c-5.67 0-10.266-4.596-10.266-10.266v-54.425h34.621v54.425c.001 5.67-4.596 10.266-10.265 10.266z" fill="#ff7186"/><path d="m169.808 122.284c1.001 7.319 2.139 12.273 2.139 12.273 2.508.167 5.133 1.183 7.09 2.131.355-2.209.878-4.391 1.573-6.528-4.31-1.549-8.05-4.317-10.802-7.876z" fill="#a05838"/><path d="m329.813 131.019c.563 1.863 1.008 3.755 1.316 5.669 2.467-1.195 5.995-2.498 9.012-2.071.099-3.424.256-6.919.433-10.203-2.899 3.083-6.601 5.4-10.761 6.605z" fill="#a05838"/><path d="m346.454 135.086c-3.739-3.427-11.188-1.69-14.408.409.706 4.393.746 8.888.136 13.326l-3.801 27.679c0 2.231-.07 4.42-.199 6.571 9.267 2.795 13.87-5.524 14.646-11.234.334-2.458.879-4.88 1.636-7.244 2.466-7.698 11.359-20.922 1.99-29.507z" fill="#fcad6d"/><path d="m339.192 159.452c-3.013 0-5.81-.924-8.125-2.502l-2.685 19.55c0 2.231-.07 4.42-.199 6.571 9.267 2.795 13.87-5.524 14.646-11.234.334-2.458.879-4.88 1.636-7.244.719-2.244 1.983-4.959 3.182-7.891-2.379 1.723-5.294 2.75-8.455 2.75z" fill="#fd995b"/><path d="m165.546 135.086c3.739-3.427 11.187-1.69 14.408.409-.705 4.393-.746 8.888-.136 13.326l3.8 27.679c0 2.231.07 4.42.2 6.571-9.267 2.795-13.87-5.524-14.646-11.234-.334-2.458-.88-4.88-1.636-7.244-2.466-7.698-11.358-20.922-1.99-29.507z" fill="#fcad6d"/><path d="m180.934 156.949c-2.316 1.578-5.112 2.502-8.125 2.502-3.161 0-6.076-1.027-8.455-2.749 1.199 2.931 2.464 5.647 3.182 7.891.757 2.364 1.303 4.786 1.637 7.244.775 5.709 5.378 14.029 14.645 11.234-.129-2.151-.2-4.34-.2-6.571z" fill="#fd995b"/><g><path d="m302.093 126.048c-52.952-16.588-90.821-.078-108.42 3.744-4.742 1.03-9.32.587-13.382-.94-1.991 6.275-2.602 13.238-1.656 20.125l3.79 27.523c0 45.976 27.819 72.542 39.78 81.83 9.949 7.726 21.873 11.589 33.796 11.589s23.846-3.863 33.796-11.589c11.96-9.288 39.779-35.845 39.768-81.667l3.801-27.679c.931-6.777.355-13.632-1.563-19.832-7.652 2.984-14.701 1.598-29.71-3.104z" fill="#f9ba8f"/></g><g><path d="m274.835 257.528c-11.961-9.931-39.78-38.335-39.78-87.492l-3.79-29.427c-.876-6.826-.4-13.714 1.258-20.029-17.243 2.616-30.393 7.376-38.849 9.213-4.742 1.03-9.321.587-13.382-.94-1.991 6.275-2.602 13.238-1.656 20.125l3.79 27.523c0 45.976 27.819 72.542 39.78 81.83 9.949 7.726 21.873 11.589 33.796 11.589 9.21 0 18.416-2.315 26.717-6.926-2.733-1.56-5.372-3.38-7.884-5.466z" fill="#fcad6d"/></g><g><path d="m240.362 304.377c-24.572-10.507-35.382-23.536-40.11-32.384l-13.112 40.49c13.24 13.877 28.099 22.952 37.888 27.992 5.848 3.011 13.021.735 16.057-5.1l6.088-11.701c3.741-7.191.643-16.11-6.811-19.297z" fill="#e9efff"/></g><path d="m200.252 271.993-13.112 40.49c6.595 6.912 13.59 12.631 20.162 17.255.985-.957 1.778-2.112 2.313-3.408 8.708-21.112 19.982-23.568 26.174-23.043.677.057 1.349.032 2.012-.039-22.766-10.299-32.989-22.721-37.549-31.255z" fill="#bec8f7"/><g><path d="m311.748 271.993c-4.728 8.849-15.539 21.877-40.11 32.384-7.453 3.187-10.552 12.105-6.81 19.297l6.087 11.701c3.036 5.835 10.21 8.111 16.057 5.1 9.789-5.04 24.647-14.115 37.888-27.992z" fill="#e9efff"/></g><path d="m430.464 325.285-32.595 36.301c-11.589 12.906-17.999 29.639-17.999 46.984v69.835c32.919-19.331 60.921-46.124 81.683-78.064-1.559-23.07-8.112-55.681-31.089-75.056z" fill="#e9efff"/><path d="m383.545 386.154c-2.41 7.166-3.674 14.73-3.674 22.416v69.835c11.943-7.013 23.228-15.021 33.766-23.888-5.19-49.928-29.987-68.285-30.092-68.363z" fill="#bec8f7"/><path d="m81.536 325.284c-22.977 19.376-29.53 51.987-31.089 75.057 20.762 31.94 48.764 58.733 81.683 78.064v-69.835c0-17.345-6.41-34.078-17.999-46.984z" fill="#e9efff"/><path d="m114.131 361.586-32.595-36.301c-22.977 19.376-29.53 51.987-31.089 75.057 14.926 22.962 33.61 43.244 55.157 60.026 0-24.061 0-54.934 0-68.117 0-5.873 6.642-12.77 16.536-19.788-2.303-3.848-4.973-7.497-8.009-10.877z" fill="#bec8f7"/><path d="m206.418 260.327-62.478 192.934h-31.04l55.153-156.653c4.123-11.712 10.692-22.274 19.438-30.379 4.458-4.132 9.663-7.874 15.321-9.93 2.253-.82 4.385 1.57 3.606 4.028z" fill="#ffdd40"/><path d="m143.94 453.261 28.666-88.523c-21.143 10.738-26.13-6.843-26.13-6.844l-33.576 95.367z" fill="#ffb332"/><path d="m305.582 260.327 62.478 192.934h31.04l-55.153-156.653c-4.124-11.712-10.693-22.274-19.438-30.379-4.458-4.132-9.663-7.874-15.321-9.93-2.253-.82-4.385 1.57-3.606 4.028z" fill="#ffdd40"/><path d="m368.06 453.261-28.666-88.523c21.143 10.738 26.13-6.843 26.13-6.844l33.576 95.367z" fill="#ffb332"/><path d="m245.881 403.941h-42.94c-1.739 0-3.375.626-4.804 1.726v-5.063c0-4.594 2.64-8.353 5.867-8.353h40.815c3.227 0 5.867 3.759 5.867 8.353v5.063c-1.43-1.1-3.066-1.726-4.805-1.726z" fill="#e9efff"/><g><path d="m226.387 400.604c0-4.595 2.64-8.354 5.866-8.354h-28.25c-3.227 0-5.866 3.759-5.866 8.354v5.063c1.429-1.1 3.065-1.726 4.804-1.726h23.446z" fill="#bec8f7"/></g><path d="m245.881 402.389h-42.94c-5.589 0-10.12 4.531-10.12 10.12v35.314l63.113-36.438c-.559-5.059-4.845-8.996-10.053-8.996z" fill="#bec8f7"/><path d="m221.25 412.509c0-5.589 4.531-10.12 10.12-10.12h-28.429c-5.589 0-10.12 4.531-10.12 10.12v35.314l28.429-16.413z" fill="#a3b3ef"/><path d="m192.821 449.933v-3.195l62.954-36.346s0 .001.001.001c.145.682.225 1.395.225 2.113v.002 36.829l-1.03.595h-62.15z" fill="#e9efff"/><path d="m224.377 446.018-3.127 1.805v-17.498l-28.429 16.413v3.195h31.556z" fill="#bec8f7"/><path d="m264.29 5.604c3.094 5.359 1.258 12.211-4.101 15.304-5.359 3.094-12.21 1.258-15.304-4.101s-1.258-12.211 4.101-15.304c5.359-3.094 12.21-1.258 15.304 4.101z" fill="#ff4155"/><path d="m205.146 96.553c0-39.359 13.613-72.718 32.271-83.658-40.517 5.629-71.715 40.389-71.715 82.455v19.521h39.443v-18.318z" fill="#e80054"/><path d="m270.972 12.465c19.06 10.456 33.058 44.181 33.058 84.087v18.318h42.259v-19.52c0-43.306-33.06-78.878-75.317-82.885z" fill="#ff4155"/><path d="m304.626 114.871v-18.319c0-39.325-13.512-72.619-32.159-83.925-3.103-.351-6.253-.549-9.45-.549h-14.042c-4.419 0-8.755.351-12.988 1.014-18.271 11.721-31.438 44.646-31.438 83.46v18.319z" fill="#ff7186"/><path d="m234.832 93.638c2.269-1.457 2.412-4.677.344-6.408-13.01-10.89-2.161-41.208 2.242-55.98 4.865-16.323 27.817-19.064 28.311-19.121-.9-.031-1.803-.051-2.712-.051h-14.042c-4.419 0-8.755.351-12.988 1.014-18.271 11.721-31.439 44.646-31.439 83.46v18.319h16.779c-4.298-8.073 6.319-16.62 13.505-21.233z" fill="#ff4155"/><path d="m346.289 102.974c-1.978-.138-22.566 1.129-48.302-6.934-27.365-8.573-56.671-8.749-84.137-.507l-3.474 1.043c-23.43 7.031-44.012 6.352-44.673 6.399-4.577 17.144 10.63 32.973 27.971 29.206 3.918-.851 8.021-1.889 12.242-3.156l3.813-1.144c30.152-9.049 62.324-8.855 92.365.556 5.718 1.791 11.215 3.163 16.363 4.213 17.39 3.545 32.41-12.528 27.832-29.676z" fill="#ffdd40"/><path d="m213.849 95.533-3.474 1.043c-23.43 7.031-44.011 6.352-44.673 6.399-4.577 17.144 10.63 32.973 27.97 29.206 3.918-.851 8.021-1.889 12.242-3.156l3.813-1.144c7.049-2.116 14.211-3.705 21.428-4.811-.355-.469-.81-.864-1.357-1.133-19.529-9.615-4.324-22.292 5.032-28.298 1.084-.696 1.667-1.796 1.772-2.942-7.668.996-15.279 2.593-22.753 4.836z" fill="#ffb332"/><g><path d="m182.701 403.941h-42.94c-1.739 0-3.375.626-4.804 1.726v-5.063c0-4.594 2.64-8.353 5.867-8.353h40.815c3.227 0 5.867 3.759 5.867 8.353v5.063c-1.43-1.1-3.066-1.726-4.805-1.726z" fill="#49d88b"/><g><path d="m163.207 400.604c0-4.595 2.64-8.354 5.867-8.354h-28.25c-3.227 0-5.867 3.759-5.867 8.354v5.063c1.43-1.1 3.065-1.726 4.805-1.726h23.445z" fill="#38c674"/></g><path d="m182.702 402.389h-42.94c-5.589 0-10.12 4.531-10.12 10.12v35.314l63.113-36.438c-.56-5.059-4.845-8.996-10.053-8.996z" fill="#38c674"/><path d="m158.071 412.509c0-5.589 4.531-10.12 10.12-10.12h-28.429c-5.589 0-10.12 4.531-10.12 10.12v35.314l28.429-16.413z" fill="#24b55e"/><path d="m129.642 449.933v-3.195l62.954-36.346s0 .001.001.001c.145.682.225 1.395.225 2.113v.003 36.829l-1.03.595z" fill="#49d88b"/><path d="m161.198 446.018-3.127 1.805v-17.498l-28.429 16.413v3.195h31.556z" fill="#38c674"/></g><g><path d="m372.239 403.941h-42.94c-1.739 0-3.375.626-4.804 1.726v-5.063c0-4.594 2.64-8.353 5.867-8.353h40.815c3.227 0 5.866 3.759 5.866 8.353v5.063c-1.429-1.1-3.065-1.726-4.804-1.726z" fill="#73c3f9"/><g><path d="m352.745 400.604c0-4.595 2.64-8.354 5.866-8.354h-28.25c-3.227 0-5.866 3.759-5.866 8.354v5.063c1.429-1.1 3.065-1.726 4.804-1.726h23.446z" fill="#4fabf7"/></g><path d="m372.239 402.389h-42.94c-5.589 0-10.12 4.531-10.12 10.12v35.314l63.113-36.438c-.559-5.059-4.845-8.996-10.053-8.996z" fill="#4fabf7"/><path d="m347.608 412.509c0-5.589 4.531-10.12 10.12-10.12h-28.429c-5.589 0-10.12 4.531-10.12 10.12v35.314l28.429-16.413z" fill="#2e8be6"/><path d="m319.179 449.933v-3.195l62.954-36.346s0 .001.001.001c.145.682.225 1.395.225 2.113v.003 36.829l-1.03.595z" fill="#73c3f9"/><path d="m350.736 446.018-3.128 1.805v-17.498l-28.429 16.413v3.195h31.557z" fill="#4fabf7"/></g><g><path d="m309.06 403.941h-42.94c-1.739 0-3.375.626-4.804 1.726v-5.063c0-4.594 2.64-8.353 5.867-8.353h40.815c3.227 0 5.867 3.759 5.867 8.353v5.063c-1.43-1.1-3.066-1.726-4.805-1.726z" fill="#ffdd40"/><g><path d="m289.566 400.604c0-4.595 2.64-8.354 5.866-8.354h-28.25c-3.227 0-5.866 3.759-5.866 8.354v5.063c1.43-1.1 3.065-1.726 4.805-1.726h23.445z" fill="#ffb332"/></g><path d="m309.06 402.389h-42.94c-5.589 0-10.12 4.531-10.12 10.12v35.314l63.113-36.438c-.559-5.059-4.845-8.996-10.053-8.996z" fill="#ffb332"/><path d="m284.429 412.509c0-5.589 4.531-10.12 10.12-10.12h-28.429c-5.589 0-10.12 4.531-10.12 10.12v35.314l28.429-16.413z" fill="#ff9100"/><path d="m256 449.933v-3.195l62.954-36.346s0 .001.001.001c.145.682.225 1.395.225 2.113v.003 36.829l-1.03.595z" fill="#ffdd40"/><path d="m287.557 446.018-3.128 1.805v-17.498l-28.429 16.413v3.195h31.557z" fill="#ffb332"/></g><path d="m397.469 454.284h-282.938c-4.07 0-7.539 2.543-8.927 6.123 41.514 32.329 93.703 51.593 150.396 51.593s108.882-19.265 150.396-51.593c-1.388-3.581-4.857-6.123-8.927-6.123z" fill="#a05838"/><path d="m105.604 460.407c28.642 22.305 62.367 38.387 99.146 46.218 0-7.032 0-15.067 0-21.625 0-15.25 16.5-19.608 16.5-19.608l-5.972-11.109h-100.747c-4.07.001-7.539 2.543-8.927 6.124z" fill="#823c26"/><path d="m408.156 443.175h-304.312c-3.551 0-6.43 2.879-6.43 6.43v4.129c4.789 4.071 9.736 7.96 14.831 11.659h287.511c5.095-3.698 10.042-7.587 14.83-11.658v-4.129c0-3.552-2.879-6.431-6.43-6.431z" fill="#b76c4e"/><g><path d="m215.093 454.284c0-4.686 2.463-8.786 6.157-11.109h-117.406c-3.551 0-6.43 2.879-6.43 6.43v4.129c4.789 4.071 9.736 7.96 14.831 11.659h109.005c-3.694-2.323-6.157-6.424-6.157-11.109z" fill="#a05838"/></g></g></svg>